<svg id="Local_Hack_Day_Logo" data-name="Local Hack Day Logo" xmlns="http://www.w3.org/2000/svg" viewBox="0 0 500 500"><defs><style>.cls-1{fill:#fff;}.cls-2{fill:#024569;}.cls-3{fill:#055b94;}.cls-4{fill:#fff;}</style></defs><title>Artboard 1</title><g id="Logo"><g id="Local_Hack_Day" data-name="Local Hack Day"><g id="Page-1"><g id="Desktop-HD"><g id="Page-1-2" data-name="Page-1"><g id="Group-3"><path id="Fill-1" class="cls-1" d="M121.44,328.72c0-21.82.14-43.65.14-65.33a5.07,5.07,0,0,0-5.49-5.07c-5.35.42-10.56.84-15.77,1.41a5.17,5.17,0,0,0-4.65,5.07c0,23.23,0,46.46-.14,69.69a5,5,0,0,1-4.22,4.93c-6.05,1-12,2.11-18,3.38a5.06,5.06,0,0,1-6.05-4.93V172.16a5,5,0,0,1,5.07-5.07h18.3a5,5,0,0,1,5.07,5.07c0,19,0,37.87-.14,56.88a5,5,0,0,0,5.35,5.07c5.21-.28,10.56-.7,15.77-1a5.09,5.09,0,0,0,4.79-5.07c0-18.73.14-37.31.14-56a5,5,0,0,1,5.07-5.07H145A5,5,0,0,1,150,172q-.21,77.29-.28,154.45a5,5,0,0,1-4.51,4.93c-6.05.7-12.11,1.41-18.16,2.25a4.85,4.85,0,0,1-5.63-4.93"/></g><path id="Fill-4" class="cls-1" d="M198.6,242c-1.41,9.29-2.82,18.73-4.22,28.16a5,5,0,0,0,5.21,5.77c2.68-.14,5.35-.14,8-.28a5.09,5.09,0,0,0,4.79-5.77L208.59,242c-.7-5.63-9.15-5.63-10,0m20.7,79.27c-.84-5.63-1.55-11.26-2.39-16.75a5.16,5.16,0,0,0-5.21-4.36c-5.91.28-11.83.42-17.6.84a5.25,5.25,0,0,0-4.79,4.22c-1,6.19-2,12.25-3,18.44a5.09,5.09,0,0,1-4.65,4.22c-5.91.42-11.83,1-17.88,1.55a5.1,5.1,0,0,1-5.49-5.91c9.71-51.67,19-102.5,28.44-152.62a5,5,0,0,1,4.93-4.08h24.08a5,5,0,0,1,4.93,4.22q13.52,74.34,26.89,148.25a5,5,0,0,1-4.93,5.91c-6.19.14-12.25.14-18.44.42a5.11,5.11,0,0,1-4.93-4.36"/><path id="Fill-6" class="cls-1" d="M337.28,310.31C330,332,301.23,329.6,298,329.6a86.17,86.17,0,0,1-14.64-2.11c-11.4-2.68-21.54-7.88-26-19.29-2.25-5.77-2.25-10.84-2.25-16.61V205.42c0-2.68.28-5.63.42-8.31.42-10.14,3.1-17.88,10.84-24.5,6.34-5.21,14.78-9.15,31.82-9.15,9.86,0,20.27,1.41,28.86,7.32a28.56,28.56,0,0,1,9.57,12c2.39,5.35,2.68,8.59,2.68,18.44v19.57a5.08,5.08,0,0,1-5.21,5.07c-6.05-.14-12.11-.42-18.16-.56a5.05,5.05,0,0,1-4.93-5.21c.42-21.82,2.82-33.93-14.36-34.07-11,0-13.09,6.9-13.09,17.18,0,28.3,0,56.74.14,85,0,10.42,2.25,18,14.08,18.44,12.67.56,13.8-6.76,13.8-19V272a5.08,5.08,0,0,1,5.21-5.07l17.88.84a5.09,5.09,0,0,1,4.79,5.07V291c.14,6.62-.14,13.52-2.11,19.29"/><path id="Fill-8" class="cls-1" d="M408.94,335.37c-6.48-18.87-12.81-37.45-19.29-55.61-1.83-5.35-9.86-3.94-9.86,1.69,0,15.49,0,31,.14,46.46a4.92,4.92,0,0,1-5.63,4.93c-6.19-.84-12.39-1.55-18.58-2.25a5,5,0,0,1-4.51-4.93l-.28-153.74a5,5,0,0,1,5.07-5.07h18.73a5,5,0,0,1,5.07,5.07c0,12.67,0,25.2.14,37.87a5,5,0,0,0,9.57,2.11c6.62-13.8,13.09-27.74,19.71-42a5.11,5.11,0,0,1,4.65-3H432a5,5,0,0,1,4.51,7.18q-15.42,33.16-30.69,64.34a5.48,5.48,0,0,0-.28,3.94c10.84,30,21.68,60.82,32.38,93.06a5.1,5.1,0,0,1-5.77,6.62c-6.34-1.27-12.67-2.39-19.15-3.52a4.73,4.73,0,0,1-4.08-3.24"/><path id="Fill-10" class="cls-1" d="M127.07,139.67V87.44a3.43,3.43,0,0,1,3.38-3.38H140a3.43,3.43,0,0,1,3.38,3.38v37.45a3.43,3.43,0,0,0,3.38,3.38H160a3.43,3.43,0,0,1,3.38,3.38v8.17a3.43,3.43,0,0,1-3.38,3.38H130.59a3.48,3.48,0,0,1-3.52-3.52"/><path id="Fill-12" class="cls-1" d="M198,98.56a10.65,10.65,0,0,0-5.63-1.69,9.9,9.9,0,0,0-7.6,3.52c-1.83,2.11-3.66,6.34-3.66,13.23,0,1.13-.14,7.88,2.82,12.25a8.85,8.85,0,0,0,3.38,3.1,10.34,10.34,0,0,0,5.07,1.13,8.49,8.49,0,0,0,7.46-3.66c2-2.39,3.66-6.19,3.66-13.38,0-1.55.28-10.56-5.49-14.5m14.08,37.87c-7.32,8.31-16.61,8.45-20,8.45s-12.81-.14-19.85-8.45c-5.07-5.77-7.46-14.36-7.46-22.95,0-3.94.56-15.06,7.6-23.09,3.24-3.52,9.29-8.45,20-8.45,3.38,0,12.39.14,19.57,8,3.1,3.38,7.88,10.7,7.88,23.09,0,3.66-.42,14.92-7.74,23.37"/><g id="Group-16"><path id="Fill-14" class="cls-1" d="M271.19,134.92a25.78,25.78,0,0,1-21,10c-6.62,0-12.39-1.83-17.32-6.76-8.59-8.31-9.29-20-9.29-24.22A37.36,37.36,0,0,1,229,94.23c7-11.4,16.9-12.25,21.4-12.25a27.12,27.12,0,0,1,21.54,10.7c.7,1,1.27,1.83,1.83,2.68a3.16,3.16,0,0,1-1.27,4.51l-7.74,4.51a3.38,3.38,0,0,1-4.51-1.13c-1.69-3-4.93-6.9-9.29-6.9A9,9,0,0,0,245,98.45c-5.07,4.36-4.93,12.81-4.93,14.36,0,8,2.25,12.39,4.79,14.64a8.75,8.75,0,0,0,6.05,2.39c3.94,0,7.18-3.94,9-6.9a3.18,3.18,0,0,1,4.36-1.13l8,4.51a3.36,3.36,0,0,1,1.27,4.51,20.85,20.85,0,0,1-2.39,4.08"/></g><path id="Fill-17" class="cls-1" d="M301.23,113.06,300,117.57a3.34,3.34,0,0,0,3.24,4.22h2.39a3.41,3.41,0,0,0,3.24-4.22l-1.13-4.51a3.34,3.34,0,0,0-6.48,0m13.66,27.6-1-3.38a3.34,3.34,0,0,0-3.24-2.39H297.86a3.34,3.34,0,0,0-3.24,2.39l-.84,3.38a3.34,3.34,0,0,1-3.24,2.39H280.26a3.25,3.25,0,0,1-3.1-4.36l17.46-52.23a3.17,3.17,0,0,1,3.1-2.25h13.66a3.35,3.35,0,0,1,3.1,2.25l17,52.23a3.31,3.31,0,0,1-3.1,4.36H318.13a3.34,3.34,0,0,1-3.24-2.39"/><path id="Fill-19" class="cls-1" d="M336.15,139.67V87.44a3.43,3.43,0,0,1,3.38-3.38h9.57a3.43,3.43,0,0,1,3.38,3.38v37.45a3.43,3.43,0,0,0,3.38,3.38H369.1a3.43,3.43,0,0,1,3.38,3.38v8.17a3.43,3.43,0,0,1-3.38,3.38H339.67a3.58,3.58,0,0,1-3.52-3.52"/><g id="Group-23"><path id="Fill-21" class="cls-1" d="M198.67,368.44c-1.55-1.13-2.82-1.69-6.05-1.69h-2.25a3.79,3.79,0,0,0-3.8,3.8v23.93a3.79,3.79,0,0,0,3.8,3.8h2.25a8.57,8.57,0,0,0,4.79-1.13c6.05-3.38,5.91-13.94,5.91-14.78,0-.42.14-10.42-4.65-13.94m20.13,22.95c-.84,3.8-3.38,15.63-14.22,19.15-4.08,1.41-8.73,1.27-13,1.27H174.17a3.82,3.82,0,0,1-3.8-3.94V356.75a3.79,3.79,0,0,1,3.8-3.8h13.52c2.25,0,4.65.14,6.9.14,6.9.28,13.09,1.13,18.3,6.76,3.38,3.8,6.9,10.28,6.9,22.25a65.93,65.93,0,0,1-1,9.29"/></g><path id="Fill-24" class="cls-1" d="M246,383.8l-.56,1.83a3.9,3.9,0,0,0,3.8,4.93h1a3.92,3.92,0,0,0,3.8-4.79l-.42-1.83a3.92,3.92,0,0,0-7.6-.14M260.12,409l-.7-2.53a3.81,3.81,0,0,0-3.8-2.82h-12a3.76,3.76,0,0,0-3.66,2.82l-.7,2.53a3.76,3.76,0,0,1-3.66,2.82h-9.15a3.82,3.82,0,0,1-3.66-5.07l17-51.11a3.94,3.94,0,0,1,3.66-2.68h12.81a3.94,3.94,0,0,1,3.66,2.68l16.61,51.11a3.82,3.82,0,0,1-3.66,5.07h-9.15a3.76,3.76,0,0,1-3.66-2.82"/><path id="Fill-26" class="cls-1" d="M308.27,388.17V408a3.91,3.91,0,0,1-3.8,3.94h-8.59a3.82,3.82,0,0,1-3.8-3.94V388.17a3.23,3.23,0,0,0-.56-2L275,358.88a3.91,3.91,0,0,1,3.38-5.91H288a3.76,3.76,0,0,1,3.38,2.11l5.49,10.7a3.87,3.87,0,0,0,6.9,0l5.35-10.7a4,4,0,0,1,3.52-2.11h9.57a3.83,3.83,0,0,1,3.24,5.91L309,386.2a3.36,3.36,0,0,0-.7,2"/></g></g></g><path class="cls-1" d="M218.45,10.7a10.71,10.71,0,0,1,2.68,1.69A8.36,8.36,0,0,1,223,14.93a7.67,7.67,0,0,1,.7,3.1V59.56A1.44,1.44,0,0,1,222.25,61h-9.86A1.44,1.44,0,0,1,211,59.56V21.69H203.1V59.56A1.44,1.44,0,0,1,201.69,61h-8.87a1.44,1.44,0,0,1-1.41-1.41V21.69h-7.88V59.56c0,.84-.42,1.27-1.41,1.27h-9.86c-.84,0-1.41-.42-1.41-1.27V11.27c0-.84.42-1.27,1.41-1.27h42.8A8.51,8.51,0,0,1,218.45,10.7Z"/><path class="cls-1" d="M266.46,48.44a1.44,1.44,0,0,1,1.41,1.41v9.57a1.44,1.44,0,0,1-1.41,1.41H232.67c-1,0-1.41-.42-1.41-1.41v-48c0-1,.42-1.41,1.41-1.41h10.42c1,0,1.41.42,1.41,1.41V47.17a1.44,1.44,0,0,0,1.41,1.41h20.56Z"/><path class="cls-1" d="M318.41,10a1.44,1.44,0,0,1,1.41,1.41v48a1.44,1.44,0,0,1-1.41,1.41H308a1.44,1.44,0,0,1-1.41-1.41V42.66a1.44,1.44,0,0,0-1.41-1.41H290.25a1.44,1.44,0,0,0-1.41,1.41V59.42c0,1-.42,1.41-1.41,1.41H277c-1,0-1.41-.42-1.41-1.41v-48c0-1,.42-1.41,1.41-1.41h10.42c1,0,1.41.42,1.41,1.41V27.74c0,1,.42,1.41,1.41,1.41h14.92a1.44,1.44,0,0,0,1.41-1.41V11.41A1.44,1.44,0,0,1,308,10Z"/></g><g id="Banner"><path class="cls-2" d="M63.42,413.3c11.31-5.49,45.1-20.81,82.07-27a2.93,2.93,0,0,1,3.4,2.9v51.63a2.93,2.93,0,0,1-2.47,2.89C116,448.63,84.27,461.87,70,468.32a2.94,2.94,0,0,1-3.82-4l14.35-28.14a2.94,2.94,0,0,0-.72-3.57l-17-14.41A2.93,2.93,0,0,1,63.42,413.3Z"/><path class="cls-2" d="M432.09,413.31c-11.3-5.49-45.1-20.81-82.09-27a2.93,2.93,0,0,0-3.4,2.9v51.64a2.92,2.92,0,0,0,2.47,2.88c30.49,4.93,62.18,18.18,76.4,24.63a2.93,2.93,0,0,0,3.82-4l-14.36-28.16a2.93,2.93,0,0,1,.72-3.57l17-14.42A2.93,2.93,0,0,0,432.09,413.31Z"/><rect class="cls-3" x="112.65" y="429.01" width="270.28" height="60.99" rx="1.01" ry="1.01"/></g><g id="Hosted_By_GitHub" data-name="Hosted By GitHub"><path class="cls-4" d="M264.41,458.72H254.14a.48.48,0,0,0-.48.48v5a.48.48,0,0,0,.48.48h4v6.24a12.14,12.14,0,0,1-3.39.31c-2.94,0-7-1.07-7-10.09S252,451,256,451a16.25,16.25,0,0,1,5.92.91.48.48,0,0,0,.58-.47l1.15-4.85a.45.45,0,0,0-.18-.37c-.39-.28-2.74-1.59-8.7-1.59-6.86,0-13.89,2.92-13.89,16.94s8.05,16.12,14.84,16.12a16.71,16.71,0,0,0,9-2.4.41.41,0,0,0,.16-.36V459.2A.48.48,0,0,0,264.41,458.72Z"/><path class="cls-4" d="M317.35,446.25a.48.48,0,0,0-.48-.48h-5.78a.48.48,0,0,0-.48.48v11.18h-9V446.25a.48.48,0,0,0-.48-.48h-5.78a.48.48,0,0,0-.48.48v30.27a.48.48,0,0,0,.48.48h5.78a.48.48,0,0,0,.48-.48V463.57h9l0,12.95a.48.48,0,0,0,.48.48h5.8a.48.48,0,0,0,.48-.48Z"/><path class="cls-4" d="M275.33,450.22A3.73,3.73,0,1,0,271.6,454,3.75,3.75,0,0,0,275.33,450.22Z"/><path class="cls-4" d="M274.91,470.13v-14a.48.48,0,0,0-.48-.48h-5.77a.55.55,0,0,0-.5.54v20c0,.59.37.76.84.76h5.2c.57,0,.71-.28.71-.77Z"/><path class="cls-4" d="M339.34,455.72H333.6a.48.48,0,0,0-.48.48V471a6.49,6.49,0,0,1-3.53,1.07c-2.07,0-2.62-.94-2.62-3V456.21a.48.48,0,0,0-.48-.48h-5.83a.48.48,0,0,0-.48.48v13.92c0,6,3.35,7.49,8,7.49a13.45,13.45,0,0,0,6.84-2.09,12.15,12.15,0,0,0,.21,1.23.51.51,0,0,0,.42.26l3.71,0a.48.48,0,0,0,.48-.48V456.21A.48.48,0,0,0,339.34,455.72Z"/><path class="cls-4" d="M355,455a10.79,10.79,0,0,0-5.48,1.45V446.25a.48.48,0,0,0-.48-.48h-5.8a.48.48,0,0,0-.48.48v30.27a.48.48,0,0,0,.48.48h4a.48.48,0,0,0,.42-.26,9.42,9.42,0,0,0,.24-1.4,10.38,10.38,0,0,0,6.86,2.25c5.27,0,8.29-2.67,8.29-12S358.29,455,355,455Zm-2.26,17.05a6.88,6.88,0,0,1-3.34-1v-9.59a7.65,7.65,0,0,1,3-1c2.07-.19,4.06.44,4.06,5.37C356.44,471.15,355.55,472.18,352.76,472.1Z"/><path class="cls-4" d="M291.54,455.67H287.2v-5.73c0-.22-.11-.33-.36-.33h-5.91c-.23,0-.35.1-.35.32v5.92l-3.16.77a.48.48,0,0,0-.35.46v3.72a.48.48,0,0,0,.48.48h3v9c0,6.65,4.67,7.3,7.81,7.3a13.19,13.19,0,0,0,3.44-.57.45.45,0,0,0,.27-.43v-4.09a.49.49,0,0,0-.48-.48c-.25,0-.9.1-1.57.1-2.13,0-2.85-1-2.85-2.27s0-8.51,0-8.51h4.34a.48.48,0,0,0,.48-.48v-4.66A.48.48,0,0,0,291.54,455.67Z"/><path class="cls-4" d="M143.35,469.51h-1.69v-6.82H134v6.82h-1.69V455H134v6.17h7.64V455h1.69Z"/><path class="cls-4" d="M157.17,464.07a6,6,0,0,1-1.34,4.15,4.71,4.71,0,0,1-3.7,1.49,4.89,4.89,0,0,1-2.59-.68,4.51,4.51,0,0,1-1.75-2,6.83,6.83,0,0,1-.62-3,6,6,0,0,1,1.33-4.14,4.7,4.7,0,0,1,3.69-1.48,4.6,4.6,0,0,1,3.63,1.52A6,6,0,0,1,157.17,464.07Zm-8.28,0a5.16,5.16,0,0,0,.83,3.17,3.31,3.31,0,0,0,4.9,0,5.13,5.13,0,0,0,.84-3.18,5,5,0,0,0-.84-3.15,3,3,0,0,0-2.47-1.08,2.89,2.89,0,0,0-2.44,1.06A5.09,5.09,0,0,0,148.89,464.07Z"/><path class="cls-4" d="M167.78,466.55a2.72,2.72,0,0,1-1.13,2.34,5.31,5.31,0,0,1-3.17.82,6.89,6.89,0,0,1-3.37-.68V467.5a8.09,8.09,0,0,0,1.68.62,7,7,0,0,0,1.73.23,3.93,3.93,0,0,0,2-.41,1.42,1.42,0,0,0,.14-2.34,8.65,8.65,0,0,0-2.15-1.07,11.65,11.65,0,0,1-2.16-1,2.94,2.94,0,0,1-1-1,2.49,2.49,0,0,1-.31-1.28,2.44,2.44,0,0,1,1.08-2.1,5,5,0,0,1,3-.77,8.68,8.68,0,0,1,3.43.71L167,460.5a7.87,7.87,0,0,0-3-.67,3.41,3.41,0,0,0-1.76.37,1.14,1.14,0,0,0-.6,1,1.23,1.23,0,0,0,.22.74,2.21,2.21,0,0,0,.72.58,15.88,15.88,0,0,0,1.9.8,7.11,7.11,0,0,1,2.61,1.42A2.5,2.5,0,0,1,167.78,466.55Z"/><path class="cls-4" d="M174.68,468.35a5.24,5.24,0,0,0,.84-.06,5.41,5.41,0,0,0,.65-.13v1.26a3,3,0,0,1-.79.21,6,6,0,0,1-.94.08q-3.15,0-3.15-3.32v-6.46h-1.56v-.79l1.56-.68.69-2.32h1v2.52h3.15v1.28h-3.15v6.39a2.2,2.2,0,0,0,.47,1.51A1.62,1.62,0,0,0,174.68,468.35Z"/><path class="cls-4" d="M183.64,469.71a5,5,0,0,1-3.8-1.47,5.68,5.68,0,0,1-1.39-4.08,6.3,6.3,0,0,1,1.3-4.17,4.3,4.3,0,0,1,3.47-1.55,4.1,4.1,0,0,1,3.23,1.34,5.15,5.15,0,0,1,1.19,3.54v1h-7.49a4.3,4.3,0,0,0,1,2.91,3.34,3.34,0,0,0,2.58,1,8.77,8.77,0,0,0,3.47-.73V469a8.7,8.7,0,0,1-1.65.54A9.29,9.29,0,0,1,183.64,469.71Zm-.45-9.89a2.69,2.69,0,0,0-2.09.85,3.93,3.93,0,0,0-.92,2.36h5.68a3.62,3.62,0,0,0-.69-2.38A2.44,2.44,0,0,0,183.19,459.82Z"/><path class="cls-4" d="M198.54,468.05h-.09a3.87,3.87,0,0,1-3.41,1.66,4,4,0,0,1-3.32-1.46,6.42,6.42,0,0,1-1.19-4.15,6.52,6.52,0,0,1,1.19-4.17,4,4,0,0,1,3.31-1.49,4,4,0,0,1,3.39,1.61h.13l-.07-.78,0-.76v-4.42h1.65v15.43h-1.34Zm-3.29.28a3,3,0,0,0,2.44-.92,4.63,4.63,0,0,0,.76-3v-.35a5.45,5.45,0,0,0-.77-3.3,2.92,2.92,0,0,0-2.45-1,2.52,2.52,0,0,0-2.22,1.13,5.59,5.59,0,0,0-.77,3.18,5.36,5.36,0,0,0,.76,3.14A2.58,2.58,0,0,0,195.25,468.33Z"/><path class="cls-4" d="M210.54,455h4.1a7.73,7.73,0,0,1,4.17.86,3,3,0,0,1,1.29,2.73,3.15,3.15,0,0,1-.72,2.13,3.45,3.45,0,0,1-2.1,1.09v.1q3.3.56,3.3,3.47a3.73,3.73,0,0,1-1.31,3,5.59,5.59,0,0,1-3.67,1.09h-5.06Zm1.69,6.21H215a4.52,4.52,0,0,0,2.57-.56,2.16,2.16,0,0,0,.78-1.89,1.91,1.91,0,0,0-.87-1.76,5.45,5.45,0,0,0-2.78-.54h-2.48Zm0,1.43v5.42h3a4.31,4.31,0,0,0,2.64-.68,2.51,2.51,0,0,0,.89-2.13,2.26,2.26,0,0,0-.91-2,4.86,4.86,0,0,0-2.76-.63Z"/><path class="cls-4" d="M222.43,458.64h1.77l2.38,6.2a23.6,23.6,0,0,1,1,3.06h.08q.13-.51.54-1.73t2.69-7.53h1.76L228,471a6.18,6.18,0,0,1-1.62,2.6,3.45,3.45,0,0,1-2.28.77,6.68,6.68,0,0,1-1.49-.17V472.9a5.76,5.76,0,0,0,1.22.12,2.51,2.51,0,0,0,2.42-1.9l.61-1.55Z"/></g></g></svg>
